<svg width="39" height="34" viewBox="0 0 39 34" fill="none" xmlns="http://www.w3.org/2000/svg">
<g clip-path="url(#clip0_211_2052)">
<path d="M38.5803 13.95C38.5843 13.921 38.5843 13.8916 38.5803 13.8626C38.5841 13.839 38.5841 13.8149 38.5803 13.7912L38.2967 11.7498C38.2558 11.5056 38.1463 11.2773 37.9807 11.0906L37.9321 11.035L37.843 10.9476L32.9332 6.80139L33.0709 6.93643C32.9582 6.80426 32.8168 6.69854 32.657 6.62706C32.4971 6.55558 32.323 6.52016 32.1473 6.5234H30.6565C30.4141 6.51869 30.1772 6.59425 29.9841 6.73786C29.7812 6.59512 29.537 6.51994 29.2873 6.5234H27.7965C27.601 6.52029 27.4082 6.56786 27.2374 6.66131C27.0667 6.75476 26.9242 6.89077 26.8243 7.05557C26.6703 7.29095 26.6125 7.57454 26.6623 7.84986L26.8486 9.13661C26.7252 9.068 26.5854 9.0324 26.4435 9.03336H19.2247C18.9657 9.03495 18.7126 9.10938 18.4955 9.24781C18.2855 9.37666 18.1169 9.56117 18.0094 9.77998L17.4503 9.31135C17.2303 9.11177 16.9399 9.00359 16.6401 9.00953H5.3136C5.05368 9.01417 4.79953 9.08536 4.57634 9.21604C4.271 9.39125 4.04722 9.67614 3.95248 10.0103L0.355205 21.8055C0.287991 21.9999 0.28138 22.2095 0.336216 22.4076C0.391053 22.6056 0.504855 22.7832 0.663083 22.9176C0.704313 22.9518 0.747604 22.9837 0.792718 23.0128C0.792718 23.0128 0.719788 22.9652 0.679278 22.9255L5.58909 27.0796C5.79678 27.2671 6.06833 27.3719 6.35062 27.3735H17.7663C18.027 27.3669 18.2813 27.2929 18.5036 27.159C18.6293 27.0917 18.7418 27.0029 18.8358 26.8969L18.8763 26.8413L18.9411 26.7619L18.9897 26.6745L19.5245 27.1273C19.7292 27.3073 19.9948 27.4063 20.2698 27.4053H31.7098C31.9702 27.3968 32.2241 27.323 32.4471 27.1908C32.5699 27.1193 32.6818 27.0311 32.7793 26.9287L32.8197 26.8731L32.8846 26.7937C32.919 26.7434 32.9489 26.6903 32.9737 26.6348C33.0001 26.5866 33.0218 26.5361 33.0385 26.4839L36.3198 15.7133V15.618C36.3238 15.5811 36.3238 15.5438 36.3198 15.5068V15.4354C36.3237 15.4117 36.3237 15.3875 36.3198 15.3638C36.3235 15.3136 36.3235 15.2632 36.3198 15.2129H37.3731C37.4647 15.2212 37.5569 15.2212 37.6485 15.2129H37.7215C37.7807 15.1956 37.8378 15.1716 37.8916 15.1414H37.9726L38.1184 15.0302L38.1833 14.9826L38.2967 14.8396V14.792L38.3777 14.6569C38.3732 14.6307 38.3732 14.6038 38.3777 14.5775C38.3734 14.5646 38.3734 14.5507 38.3777 14.5378C38.3949 14.4912 38.4085 14.4434 38.4182 14.3948C38.4144 14.3791 38.4144 14.3628 38.4182 14.3471C38.4143 14.3235 38.4143 14.2993 38.4182 14.2757C38.4182 14.2757 38.5803 13.9659 38.5803 13.95Z" fill="black"/>
<path d="M16.9723 9.91505C17.0154 9.95318 17.0454 10.0033 17.0584 10.0587C17.0715 10.1141 17.0669 10.1721 17.0453 10.2248L13.4561 22.0121C13.4109 22.1408 13.3185 22.2484 13.1969 22.3139C13.0979 22.3788 12.9834 22.4171 12.8646 22.4251H1.45711C1.35969 22.4205 1.26739 22.381 1.19784 22.3139C1.15647 22.2764 1.12743 22.2276 1.11444 22.1739C1.10145 22.1201 1.10511 22.0638 1.12493 22.0121L4.7222 10.2248C4.76365 10.0945 4.8532 9.98404 4.97336 9.91505C5.07394 9.85482 5.18793 9.81939 5.30554 9.81179H16.7131C16.8097 9.8127 16.9024 9.84962 16.9723 9.91505ZM11.0174 19.6372L13.1644 12.5997H7.1528L5.01386 19.6372H11.0174ZM27.8614 10.0342C27.9003 10.0785 27.9489 10.1137 28.0037 10.1371C28.0584 10.1605 28.1177 10.1714 28.1774 10.1692H29.66C29.7165 10.1698 29.7721 10.1562 29.8218 10.1298C29.8714 10.1034 29.9133 10.065 29.9436 10.0183C29.9699 9.98182 29.9885 9.94052 29.9982 9.89686C30.008 9.8532 30.0087 9.80807 30.0003 9.76414L29.7086 7.66721C29.6809 7.57016 29.631 7.48054 29.5628 7.40509C29.5238 7.36075 29.4752 7.32558 29.4205 7.30221C29.3658 7.27883 29.3064 7.26785 29.2468 7.27006H27.7642C27.7077 7.26953 27.652 7.2831 27.6024 7.30951C27.5528 7.33591 27.5109 7.37428 27.4806 7.42098C27.4239 7.53218 27.3996 7.60367 27.4239 7.66721L27.7237 9.76414C27.739 9.86624 27.7873 9.96085 27.8614 10.0342ZM32.5686 7.65132C32.5408 7.55427 32.4909 7.46465 32.4228 7.38921C32.3855 7.34503 32.3383 7.30987 32.2849 7.28645C32.2315 7.26304 32.1734 7.25199 32.1149 7.25418H30.6241C30.5686 7.25263 30.5137 7.26584 30.4652 7.2924C30.4167 7.31897 30.3765 7.35791 30.3487 7.40509C30.2948 7.47556 30.2714 7.56407 30.2839 7.65132L30.5836 9.74825C30.6024 9.84927 30.6502 9.94295 30.7214 10.0183C30.761 10.0618 30.8098 10.0964 30.8643 10.1197C30.9189 10.143 30.9778 10.1544 31.0373 10.1533H32.5281C32.5835 10.154 32.6381 10.1405 32.6864 10.114C32.7348 10.0875 32.7752 10.049 32.8036 10.0024C32.8318 9.96689 32.8515 9.9256 32.8613 9.88162C32.8711 9.83765 32.8708 9.79208 32.8603 9.74825L32.5686 7.65132ZM26.557 10.8285L26.4111 9.7959H19.2247C19.1119 9.802 19.0027 9.83766 18.9087 9.89916C18.849 9.93106 18.7971 9.97528 18.7565 10.0288C18.716 10.0822 18.6878 10.1437 18.6738 10.2089L18.0742 12.1788C18.0503 12.228 18.0421 12.2832 18.0508 12.3371C18.0595 12.391 18.0846 12.441 18.1228 12.4806C18.1911 12.5436 18.2803 12.5803 18.374 12.5839H27.1079L24.9609 19.6213H16.2513C16.139 19.6238 16.0296 19.6568 15.9353 19.7166C15.8207 19.7879 15.737 19.8982 15.7004 20.0263L15.0927 21.9962C15.0729 22.0467 15.0677 22.1017 15.0777 22.1549C15.0877 22.2082 15.1125 22.2577 15.1494 22.298C15.2156 22.3652 15.3054 22.405 15.4006 22.4092H26.8405C26.9588 22.3992 27.0729 22.3611 27.1727 22.298C27.2923 22.2321 27.3821 22.1243 27.4239 21.9962L30.7132 11.2256H27.0107C26.9519 11.2268 26.8936 11.2161 26.8392 11.1942C26.7849 11.1724 26.7357 11.1398 26.6947 11.0985C26.6277 11.0265 26.5804 10.9391 26.557 10.8444V10.8285Z" fill="white"/>
</g>
<defs>
<clipPath id="clip0_211_2052">
<rect width="38.2838" height="20.8821" fill="white" transform="translate(0.299438 6.52319)"/>
</clipPath>
</defs>
</svg>
