<svg width="34" height="34" viewBox="0 0 34 34" fill="none" xmlns="http://www.w3.org/2000/svg">
<g clip-path="url(#clip0_211_2056)">
<path d="M31.785 9.70056C31.785 9.72409 31.785 9.75352 31.7789 9.77117C31.7483 10.0007 31.7482 10.2301 31.7666 10.4655C31.7789 10.5243 31.7912 10.5832 31.8402 10.6303C31.9199 10.7185 32.0425 10.7009 32.0916 10.595C32.1161 10.542 32.1161 10.489 32.1038 10.4361C32.0425 10.2125 32.0303 9.97712 32.0241 9.74763C32.0241 9.73586 32.0241 9.71821 32.0241 9.70056C32.0916 9.69467 32.1529 9.68879 32.208 9.68879C32.251 9.68291 32.2878 9.67702 32.3184 9.65937C32.4104 9.6123 32.4104 9.51226 32.3123 9.46519C32.2755 9.44754 32.2265 9.44165 32.1835 9.44165C32.0303 9.44754 31.877 9.44754 31.7237 9.44754C31.6686 9.44754 31.6134 9.45342 31.5582 9.4593C31.5275 9.46519 31.4907 9.46519 31.4662 9.48284C31.4233 9.50049 31.3988 9.52991 31.3988 9.5711C31.4049 9.6123 31.4233 9.63583 31.4662 9.65348C31.4907 9.67114 31.5214 9.67702 31.552 9.67702C31.6256 9.68291 31.7053 9.69467 31.785 9.70056ZM33.471 9.97123C33.471 9.97712 33.4771 9.983 33.4771 9.983C33.5016 10.1419 33.5262 10.2949 33.5446 10.4478C33.5507 10.5008 33.5568 10.5479 33.5936 10.5891C33.6733 10.6891 33.7959 10.6773 33.8511 10.5714C33.8756 10.5185 33.8818 10.4655 33.8695 10.4067C33.8327 10.2301 33.8143 10.0536 33.7775 9.88297C33.753 9.77705 33.7224 9.67702 33.6917 9.58287C33.6733 9.52403 33.6304 9.48284 33.5568 9.47696C33.4833 9.46519 33.4281 9.50049 33.3974 9.55345C33.3606 9.60052 33.33 9.6476 33.3054 9.70056C33.2625 9.7947 33.2258 9.88885 33.1767 9.97712C33.1706 10.0007 33.1644 10.0183 33.1522 10.036C33.1461 10.0242 33.14 10.0183 33.14 10.0183C33.0602 9.8712 32.9867 9.72409 32.907 9.58287C32.8947 9.5711 32.8886 9.55933 32.8824 9.54757C32.8457 9.49461 32.8028 9.46519 32.7353 9.46519C32.674 9.47107 32.6249 9.50638 32.5943 9.55933C32.582 9.58287 32.582 9.60052 32.5759 9.62406C32.5514 9.81236 32.5207 10.0007 32.4962 10.1889C32.4839 10.2949 32.4778 10.4008 32.4778 10.5067C32.4717 10.5302 32.4778 10.5596 32.49 10.5832C32.5023 10.6303 32.5391 10.6597 32.5881 10.6656C32.6495 10.6715 32.6924 10.6538 32.7108 10.6067C32.7291 10.5714 32.7353 10.542 32.7414 10.5126C32.766 10.4067 32.7843 10.3066 32.8028 10.2066C32.815 10.1478 32.8211 10.1007 32.8395 10.036C32.8518 10.0595 32.864 10.0771 32.8763 10.0948C32.9315 10.1654 32.9867 10.236 33.0541 10.2949C33.1215 10.3419 33.1767 10.3361 33.2319 10.2831C33.2442 10.2713 33.2503 10.2654 33.2625 10.2537C33.3177 10.1713 33.3852 10.0889 33.4403 10.0065C33.4526 9.99477 33.4587 9.983 33.471 9.97123Z" fill="#3A3B7B"/>
<path d="M19.3448 9.81622C19.3022 9.92805 19.2941 10.0086 19.3138 10.0756C19.3355 10.1666 19.3919 10.1964 19.4684 10.1733C20.1886 10.0024 21.7676 10.4875 22.3523 10.6227C22.4901 10.6511 22.6023 10.4803 22.5082 10.3271C22.3709 10.1788 20.7925 9.54376 20.1903 9.50913C19.9542 9.49633 19.5322 9.43823 19.3448 9.81622Z" fill="#3A3B7B"/>
<path d="M25.5161 7.76059C25.5929 7.80311 25.6358 7.84366 25.657 7.88897C25.6885 7.94841 25.6719 7.98954 25.6189 8.01052C25.1429 8.23349 24.5094 9.19344 24.2538 9.52451C24.1918 9.60067 24.0488 9.55641 24.0272 9.43117C24.0317 9.28955 24.5931 8.2478 24.9065 7.96407C25.0297 7.85329 25.2331 7.63592 25.5161 7.76059Z" fill="#3A3B7B"/>
<path d="M21.7253 7.28796C21.8175 7.22127 21.9134 7.19789 21.9623 7.24124C22.6805 7.83074 23.0613 8.76426 23.2972 9.61888C23.306 9.63879 23.3066 9.66737 23.2995 9.69717C23.2966 9.72265 23.2772 9.74956 23.2464 9.77038C23.2135 9.79337 23.1851 9.80037 23.1718 9.78056C22.8571 9.36965 21.0593 7.77088 21.7253 7.28796Z" fill="#3A3B7B"/>
<path d="M6.51682 17.5083C6.68895 17.3853 6.87608 17.2829 7.07411 17.2035C7.28129 17.1466 7.50211 17.156 7.70322 17.2304C7.90428 17.3047 8.07473 17.4398 8.18867 17.6153C8.2906 17.7904 8.33046 17.9925 8.30233 18.1913C8.27419 18.39 8.17955 18.5745 8.03262 18.7172C7.91872 18.8328 7.7894 18.9335 7.64812 19.0167C7.0184 19.4072 6.38307 19.7762 5.74777 20.1667C5.61777 20.2644 5.47987 20.352 5.33537 20.4287C5.11559 20.5339 4.86441 20.5621 4.62526 20.5084C4.38613 20.4547 4.17407 20.3225 4.02575 20.1346C3.91488 20.0015 3.82131 19.8561 3.74711 19.7013C3.14524 18.4872 2.52108 17.2784 1.94151 16.0428C1.67401 15.5079 1.45667 14.8928 1.2449 14.2991C1.15328 14.1266 1.13539 13.9267 1.19503 13.7417C1.25468 13.5567 1.38716 13.4014 1.56429 13.3087C1.74143 13.216 1.94924 13.1933 2.14353 13.2455C2.33782 13.2976 2.50326 13.4204 2.60467 13.5878C2.91638 13.9853 3.1923 14.4076 3.42946 14.8501C4.03132 15.9198 4.60533 16.9895 5.18491 18.0272C5.21865 18.0845 5.25587 18.1398 5.29636 18.193C5.73259 18.0169 6.14289 17.7868 6.51682 17.5083Z" fill="#3A3B7B"/>
<path d="M12.7397 17.1351C11.3632 18.6809 9.05607 18.2904 7.89692 16.3007C7.07212 14.8887 6.92724 12.5566 8.72172 11.0857C9.10491 10.7778 9.56311 10.568 10.0536 10.476C10.655 10.3932 11.2683 10.4951 11.8057 10.7669C12.3432 11.0388 12.7774 11.4668 13.0463 11.9897C14.0271 13.7013 13.8877 15.8835 12.7397 17.1351ZM12.1824 13.5301C12.0362 13.1095 11.7428 12.7504 11.3521 12.5138C11.131 12.3626 10.8623 12.289 10.5913 12.3056C10.3203 12.3221 10.0635 12.4278 9.86413 12.6048C9.06724 13.2841 8.90002 14.894 9.47959 15.8514C9.55348 16.0076 9.66195 16.1463 9.79754 16.258C9.93312 16.3696 10.0925 16.4515 10.2645 16.4979C10.4365 16.5442 10.6169 16.554 10.7932 16.5264C10.9696 16.4988 11.1375 16.4345 11.2852 16.3382C11.7172 16.0167 12.0341 15.5741 12.1919 15.0718C12.3497 14.5695 12.3406 14.0325 12.1657 13.5355L12.1824 13.5301Z" fill="#3A3B7B"/>
<path d="M18.3572 14.2042C18.2163 14.2333 18.0707 14.235 17.929 14.2093C17.7874 14.1836 17.6525 14.1309 17.5324 14.0545C17.4273 13.9968 17.3368 13.9174 17.2675 13.8221C17.1982 13.7269 17.1517 13.618 17.1315 13.5034C17.1112 13.3889 17.1177 13.2714 17.1504 13.1595C17.1831 13.0476 17.2413 12.9441 17.3207 12.8563C17.459 12.68 17.6554 12.5537 17.8779 12.498C18.459 12.3361 19.0572 12.2374 19.6613 12.2038C19.794 12.189 19.9284 12.1998 20.0567 12.2355C20.1851 12.2713 20.3046 12.3313 20.4085 12.412C20.5123 12.4927 20.5983 12.5925 20.6614 12.7056C20.7244 12.8186 20.7633 12.9426 20.7758 13.0703C20.95 13.6974 20.969 14.355 20.8315 14.9905C20.33 17.0444 18.6024 17.7504 16.663 17.0925C16.1187 16.9166 15.6413 16.5889 15.2921 16.1511C14.8264 15.624 14.4961 14.9993 14.328 14.3273C14.1918 13.7288 14.2067 13.1078 14.3716 12.516C14.5364 11.9242 14.8463 11.3789 15.2754 10.9255C15.6827 10.4327 16.2112 10.0448 16.8135 9.7969C17.1941 9.59556 17.6395 9.53832 18.0619 9.63643C18.1577 9.66189 18.2446 9.71148 18.3138 9.78007C18.3829 9.84867 18.4316 9.93376 18.4549 10.0265C18.4783 10.1193 18.4753 10.2164 18.4463 10.3076C18.4174 10.3989 18.3635 10.4811 18.2903 10.5457C18.1512 10.6666 18 10.7741 17.8389 10.8666C17.3435 11.1695 16.9123 11.5597 16.5683 12.0166C16.3428 12.3123 16.1875 12.6518 16.1134 13.0113C16.0392 13.3707 16.048 13.7414 16.1392 14.0973C16.2656 14.5825 16.5461 15.018 16.9417 15.3435C18.1677 16.4132 19.7615 15.3809 19.4829 13.9207C19.0761 14.017 18.7194 14.1186 18.3572 14.2042Z" fill="#3A3B7B"/>
<path d="M25.8472 17.2208C24.036 18.2906 21.974 17.2208 21.5226 14.9744C21.1938 13.3698 21.818 11.1233 24.0026 10.2676C24.4674 10.0894 24.9715 10.0268 25.4682 10.0857C26.065 10.1905 26.6125 10.4725 27.0334 10.8919C27.4543 11.3112 27.7275 11.8468 27.8144 12.4231C28.1822 14.3325 27.3463 16.3704 25.8472 17.2208ZM26.4769 13.6212C26.4764 13.1768 26.3126 12.7469 26.0144 12.407C25.855 12.1968 25.6245 12.0462 25.3623 11.9808C25.1001 11.9155 24.8224 11.9394 24.5765 12.0487C23.5957 12.4552 22.9047 13.9314 23.1555 15.0172C23.1747 15.1876 23.2323 15.3519 23.3245 15.4987C23.4167 15.6455 23.5412 15.7711 23.6894 15.8669C23.8374 15.9627 24.0055 16.0262 24.1819 16.0532C24.3582 16.0801 24.5386 16.0697 24.7103 16.0228C25.2287 15.8489 25.6776 15.5241 25.9943 15.0935C26.3111 14.663 26.4798 14.1482 26.4769 13.6212Z" fill="#3A3B7B"/>
<path d="M29.6459 17.6702C29.6186 17.866 29.5114 18.0433 29.3478 18.1632C29.1842 18.283 28.9777 18.3356 28.7738 18.3094C28.5698 18.2832 28.3851 18.1802 28.2602 18.0232C28.1353 17.8663 28.0805 17.6681 28.1078 17.4723C28.1352 17.2766 28.2424 17.0993 28.406 16.9794C28.5695 16.8595 28.776 16.8069 28.98 16.8332C29.1839 16.8594 29.3687 16.9623 29.4936 17.1193C29.6185 17.2763 29.6733 17.4745 29.6459 17.6702ZM29.1611 10.4548C29.2671 10.2995 29.4226 10.1812 29.6044 10.1175C29.7861 10.0539 29.9845 10.0484 30.1698 10.1018C30.3582 10.1471 30.5246 10.253 30.6413 10.402C30.758 10.551 30.8177 10.7339 30.8107 10.9202C30.7861 11.2189 30.7395 11.5156 30.6714 11.808C30.4875 12.7976 30.3091 13.7871 30.1141 14.7659C30.0249 15.1564 29.9079 15.5308 29.7797 15.9265C29.7351 16.0503 29.6606 16.1621 29.5624 16.2528C29.5013 16.3211 29.4233 16.3734 29.3355 16.405C29.2477 16.4367 29.1531 16.4466 29.0603 16.4338C28.9675 16.421 28.8796 16.3859 28.8047 16.3319C28.7298 16.2778 28.6703 16.2064 28.6317 16.1245C28.5654 15.9774 28.5294 15.8193 28.5258 15.6591C28.5258 14.9959 28.5258 14.3273 28.5704 13.6587C28.6461 12.7045 28.7951 11.757 29.0162 10.8239C29.0422 10.6989 29.0913 10.5793 29.1611 10.4709V10.4548Z" fill="#3A3B7B"/>
<path fill-rule="evenodd" clip-rule="evenodd" d="M4.16231 21.9682C4.09651 22.1092 4.07847 22.2663 4.11062 22.4176C4.13201 22.617 4.179 22.8131 4.2505 23.0015C4.33978 23.2322 4.43968 23.4603 4.56285 23.7414C4.59118 23.8061 4.62078 23.8736 4.65176 23.9447C4.81787 24.3255 5.02629 24.8123 5.3043 25.5168C5.38299 25.7169 5.45287 25.9186 5.52323 26.1218C5.55166 26.2039 5.58019 26.2862 5.60939 26.3687C5.71406 26.6622 5.89416 26.9258 6.13289 27.1347C6.23426 27.2495 6.36872 27.3332 6.51949 27.3751C6.6732 27.4177 6.83669 27.415 6.98877 27.3673C7.14084 27.3195 7.27442 27.229 7.37214 27.1074C7.46795 26.9881 7.52492 26.8444 7.536 26.6943C7.59816 26.4019 7.57694 26.0987 7.47449 25.8168C7.3119 25.3487 7.12668 24.8799 6.9131 24.4214L6.91212 24.4194C6.56076 23.7021 6.2036 22.9897 5.82954 22.277L5.82674 22.272C5.71724 22.0864 5.57493 21.9204 5.40622 21.7816C5.29668 21.6576 5.1456 21.5741 4.97875 21.5452C4.80835 21.5158 4.6326 21.5455 4.48289 21.6289C4.34126 21.7066 4.22899 21.8253 4.16231 21.9682Z" fill="#3A3B7B"/>
<path fill-rule="evenodd" clip-rule="evenodd" d="M9.52883 20.2017C8.97791 20.0648 8.40254 20.0448 7.84283 20.1433C7.4093 20.1843 6.98293 20.2802 6.68686 20.4703C6.53627 20.5671 6.41452 20.6913 6.3468 20.8492C6.27871 21.008 6.27002 21.1896 6.32582 21.3919C6.4277 21.7625 6.56001 22.1228 6.69186 22.482L6.71321 22.5402L6.71373 22.5415C7.11071 23.5849 7.51147 24.6248 7.91587 25.6611C7.96303 25.8245 8.02972 25.982 8.1146 26.1306L8.11619 26.1333C8.22831 26.318 8.37211 26.4831 8.54153 26.6218C8.62626 26.698 8.73105 26.7508 8.84466 26.7743C8.9594 26.7981 9.07872 26.7912 9.18962 26.7543C9.30057 26.7175 9.39881 26.6521 9.47368 26.5653C9.54734 26.4799 9.59557 26.3771 9.61328 26.2676C9.68638 25.9703 9.66296 25.6585 9.54612 25.3743C9.50967 25.2786 9.48107 25.1808 9.45092 25.0779C9.44087 25.0436 9.43069 25.0087 9.41994 24.9732C10.3456 24.6259 11.3306 24.1589 11.677 23.0725C11.8126 22.6971 11.8239 22.2906 11.7093 21.9087C11.5946 21.5264 11.3593 21.1875 11.0358 20.9388C10.5955 20.5906 10.0812 20.339 9.52883 20.2017ZM8.00173 21.5342C8.01996 21.5292 8.03832 21.5245 8.05674 21.5202C8.6594 21.4292 9.27599 21.5504 9.79298 21.8613C10.0208 22.0133 10.1142 22.1823 10.1302 22.3449C10.1467 22.5123 10.0833 22.6937 9.95591 22.8681C9.71517 23.1975 9.27585 23.4611 8.87901 23.5103C8.58972 22.8708 8.29593 22.2055 8.00173 21.5342Z" fill="#3A3B7B"/>
<path d="M13.2018 19.0314C13.8578 18.7406 14.6705 18.6903 15.3065 18.8948C15.4666 18.9396 15.6056 19.0364 15.6996 19.1688C15.793 19.3003 15.836 19.4588 15.8217 19.6173C15.8207 19.7201 15.7944 19.8213 15.7449 19.9126C15.6945 20.0056 15.6216 20.0855 15.5322 20.1457C15.4429 20.2058 15.3397 20.2445 15.2315 20.2583C15.1233 20.2722 15.0132 20.2608 14.9105 20.2251L14.9027 20.2224L14.8954 20.2187C14.8429 20.1923 14.7871 20.1725 14.7293 20.1595L14.7257 20.1588C14.2783 20.0447 13.8564 20.2337 13.7022 20.4659C13.6287 20.5766 13.6196 20.6883 13.6808 20.79C13.7464 20.8989 13.9072 21.021 14.2326 21.1081C14.3221 21.1317 14.4139 21.1544 14.5069 21.1776C14.7642 21.2415 15.0317 21.3079 15.2903 21.4L15.2912 21.4004C16.4842 21.836 16.9285 22.7383 16.7764 23.5869C16.6259 24.4262 15.8957 25.1899 14.7975 25.3701C14.3979 25.4551 13.9821 25.4385 13.5911 25.3221C13.1992 25.2052 12.8459 24.992 12.5664 24.7035L12.5591 24.696C12.4709 24.5873 12.4115 24.4597 12.3852 24.3242C12.361 24.2019 12.3737 24.0756 12.4219 23.96C12.4697 23.8451 12.5507 23.7457 12.6551 23.6733C12.7655 23.5912 12.8985 23.5419 13.0377 23.5316C13.1765 23.5214 13.3153 23.5503 13.4372 23.6148C13.5589 23.6713 13.6721 23.7432 13.7737 23.8288L13.7756 23.8304C13.9553 23.9882 14.1728 24.0293 14.3813 23.9912C14.5929 23.9526 14.7919 23.8324 14.9198 23.673C15.047 23.5146 15.098 23.3264 15.0374 23.1437C14.9765 22.9597 14.7932 22.7535 14.3906 22.5812C14.2853 22.5383 14.1762 22.5037 14.0627 22.47C14.0321 22.4609 14.001 22.4519 13.9695 22.4427C13.8855 22.4183 13.7991 22.3931 13.7145 22.3653C13.6561 22.3462 13.5983 22.3282 13.541 22.3102C13.3844 22.2613 13.2317 22.2136 13.0847 22.1496C12.7649 22.045 12.4886 21.8444 12.297 21.5772C12.1045 21.309 12.0077 20.9883 12.0208 20.6629C12.0219 19.8701 12.5422 19.3238 13.2018 19.0314Z" fill="#3A3B7B"/>
<path d="M21.5196 18.9468C21.3923 18.8872 21.2517 18.8589 21.1102 18.8645C20.9688 18.8701 20.831 18.9093 20.7093 18.9788C20.5884 19.0478 20.4872 19.1444 20.4147 19.2601C20.3482 19.3575 20.3021 19.4664 20.2792 19.5808C20.2562 19.6951 20.2568 19.8125 20.2808 19.9265C20.3045 20.073 20.3307 20.2155 20.3567 20.3561C20.3996 20.5886 20.4414 20.8159 20.469 21.0477L20.47 21.0536C20.5328 21.4171 20.5656 21.7847 20.5686 22.1531L20.5689 22.1583C20.5903 22.5562 20.4491 22.9462 20.1754 23.2458L20.1711 23.2511C20.082 23.3607 19.963 23.4442 19.8272 23.4926C19.6915 23.5409 19.5445 23.552 19.4026 23.5246C19.2606 23.4973 19.1294 23.4326 19.0236 23.3378C18.9178 23.2429 18.8415 23.1214 18.8034 22.9874C18.7221 22.7049 18.675 22.4143 18.663 22.1216L18.8019 19.9991C18.804 19.9714 18.8063 19.943 18.8087 19.9143C18.814 19.8498 18.8194 19.7842 18.8217 19.7229C18.8249 19.6328 18.8221 19.5401 18.8003 19.4524C18.7779 19.3628 18.7353 19.2775 18.6598 19.2049C18.585 19.133 18.484 19.0799 18.357 19.0438C18.1273 18.98 17.9331 18.982 17.7712 19.048C17.6093 19.1139 17.4983 19.2363 17.4198 19.3777C17.3419 19.5179 17.2919 19.6839 17.254 19.8501C17.2259 19.9735 17.2033 20.103 17.1819 20.2263C17.1745 20.2688 17.1672 20.3105 17.1599 20.351L17.1597 20.3522C17.0449 21.0282 17.0107 21.7146 17.0578 22.3981C17.0666 22.7675 17.1469 23.1321 17.2946 23.4732C17.4612 23.9135 17.763 24.2949 18.1601 24.5672C18.558 24.84 19.0329 24.9904 19.5219 24.9983C20.0108 25.0062 20.4908 24.8714 20.8981 24.6117C21.3048 24.3523 21.62 23.9806 21.802 23.5458C22.0566 22.9918 22.1761 22.3893 22.1514 21.7843C22.1365 21.3426 22.1114 20.8975 22.0865 20.4547C22.0743 20.2374 22.0621 20.0207 22.0511 19.8052C22.0456 19.5892 21.9714 19.3799 21.8384 19.2056C21.7561 19.0953 21.6465 19.0064 21.5196 18.9468Z" fill="#3A3B7B"/>
<path d="M26.0222 22.2748C26.0093 22.2905 25.9957 22.3068 25.9815 22.3238C25.878 21.7508 25.7821 21.1781 25.6861 20.6045C25.6516 20.3987 25.617 20.192 25.5822 19.9859L25.5782 19.963L25.5655 19.9431C25.5415 19.9057 25.5392 19.8691 25.5392 19.7909V19.7818L25.5377 19.7729C25.5117 19.6115 25.4356 19.4612 25.3194 19.3418C25.2035 19.2228 25.053 19.1399 24.8874 19.104C24.7221 19.0648 24.5484 19.0734 24.3881 19.1288C24.2283 19.184 24.0889 19.2832 23.9875 19.4139C23.9032 19.5142 23.8341 19.6255 23.7823 19.7444C23.6648 20.0006 23.5462 20.2574 23.4273 20.515L23.4252 20.5194C23.1284 21.1623 22.8296 21.8095 22.5395 22.4618L22.5386 22.4639C22.3605 22.8868 22.2134 23.3325 22.0669 23.7767C22.0376 23.8654 22.0084 23.9541 21.9789 24.0425C21.926 24.1827 21.9029 24.3316 21.9108 24.4805C21.9012 24.6137 21.9344 24.7467 22.0061 24.8613C22.0792 24.9783 22.1887 25.0703 22.3191 25.1245C22.4574 25.1827 22.6119 25.195 22.7584 25.1596C22.9045 25.1243 23.0342 25.0433 23.1272 24.9295C23.2459 24.7894 23.348 24.6365 23.4313 24.4746C23.6771 23.992 23.912 23.5036 24.1458 23.0173C24.2363 22.8292 24.3242 22.6608 24.4242 22.4773C24.4311 22.4999 24.4381 22.522 24.4453 22.5441C24.5501 22.9871 24.7271 23.4113 24.9696 23.8014C25.0155 23.884 25.0794 23.9562 25.157 24.0131C25.2355 24.0706 25.3261 24.111 25.4226 24.1315C25.519 24.152 25.6189 24.1521 25.7154 24.1317C25.8117 24.1115 25.9026 24.071 25.9811 24.0138L26.1366 23.9021L27.3435 22.9264L27.2721 23.3629C27.1742 23.963 27.077 24.558 26.9737 25.1532C26.9061 25.4169 26.9062 25.6925 26.974 25.9562C27.0033 26.1046 27.0781 26.2412 27.1888 26.3487C27.3004 26.457 27.4433 26.5306 27.599 26.5599C27.7547 26.5893 27.9161 26.573 28.062 26.5132C28.2059 26.4544 28.3282 26.3559 28.4138 26.2304C28.6128 25.9935 28.7366 25.7066 28.7706 25.404C28.8219 24.9766 28.8797 24.5434 28.9376 24.1103C29.0043 23.6111 29.071 23.112 29.1273 22.6226L29.1275 22.621C29.1817 22.0852 29.2079 21.5472 29.2061 21.0089C29.218 20.8388 29.1739 20.6693 29.0798 20.5245C28.9855 20.3792 28.8457 20.2662 28.6806 20.2015C28.5088 20.1266 28.3165 20.1065 28.1319 20.1444C27.9486 20.182 27.7826 20.2748 27.6581 20.4092C27.4355 20.6068 27.2267 20.8182 27.0329 21.0421L27.0316 21.0436C26.8202 21.2966 26.6101 21.5544 26.4014 21.8107C26.2746 21.9664 26.148 22.1218 26.0222 22.2748Z" fill="#3A3B7B"/>
</g>
<defs>
<clipPath id="clip0_211_2056">
<rect width="32.7153" height="20.186" fill="white" transform="translate(1.1604 7.21924)"/>
</clipPath>
</defs>
</svg>
