<svg width="39" height="34" viewBox="0 0 39 34" fill="none" xmlns="http://www.w3.org/2000/svg">
<g clip-path="url(#clip0_211_2080)">
<path d="M38.8874 13.95C38.8914 13.921 38.8914 13.8916 38.8874 13.8626C38.8912 13.839 38.8912 13.8149 38.8874 13.7912L38.6038 11.7498C38.5629 11.5056 38.4535 11.2773 38.2878 11.0906L38.2392 11.035L38.1501 10.9476L33.2403 6.80139L33.3781 6.93643C33.2654 6.80426 33.1239 6.69854 32.9641 6.62706C32.8043 6.55558 32.6301 6.52016 32.4545 6.5234H30.9637C30.7213 6.51869 30.4844 6.59425 30.2912 6.73786C30.0884 6.59512 29.8441 6.51994 29.5944 6.5234H28.1037C27.9081 6.52029 27.7153 6.56786 27.5446 6.66131C27.3738 6.75476 27.2313 6.89077 27.1315 7.05557C26.9775 7.29095 26.9196 7.57454 26.9694 7.84986L27.1558 9.13661C27.0323 9.068 26.8926 9.0324 26.7506 9.03336H19.5318C19.2728 9.03495 19.0198 9.10938 18.8026 9.24781C18.5926 9.37666 18.4241 9.56117 18.3165 9.77998L17.7575 9.31135C17.5374 9.11177 17.247 9.00359 16.9473 9.00953H5.62073C5.36081 9.01417 5.10666 9.08536 4.88347 9.21604C4.57813 9.39125 4.35435 9.67614 4.2596 10.0103L0.662334 21.8055C0.59512 21.9999 0.588508 22.2095 0.643345 22.4076C0.698182 22.6056 0.811983 22.7832 0.970212 22.9176C1.01144 22.9518 1.05473 22.9837 1.09985 23.0128C1.09985 23.0128 1.02692 22.9652 0.986407 22.9255L5.89622 27.0796C6.10391 27.2671 6.37546 27.3719 6.65775 27.3735H18.0735C18.3342 27.3669 18.5885 27.2929 18.8107 27.159C18.9364 27.0917 19.0489 27.0029 19.1429 26.8969L19.1834 26.8413L19.2482 26.7619L19.2968 26.6745L19.8316 27.1273C20.0363 27.3073 20.3019 27.4063 20.577 27.4053H32.0169C32.2773 27.3968 32.5312 27.323 32.7542 27.1908C32.8771 27.1193 32.9889 27.0311 33.0864 26.9287L33.1269 26.8731L33.1917 26.7937C33.2261 26.7434 33.256 26.6903 33.2808 26.6348C33.3073 26.5866 33.329 26.5361 33.3456 26.4839L36.6269 15.7133V15.618C36.631 15.5811 36.631 15.5438 36.6269 15.5068V15.4354C36.6308 15.4117 36.6308 15.3875 36.6269 15.3638C36.6306 15.3136 36.6306 15.2632 36.6269 15.2129H37.6802C37.7718 15.2212 37.864 15.2212 37.9556 15.2129H38.0286C38.0879 15.1956 38.145 15.1716 38.1987 15.1414H38.2798L38.4256 15.0302L38.4904 14.9826L38.6038 14.8396V14.792L38.6848 14.6569C38.6803 14.6307 38.6803 14.6038 38.6848 14.5775C38.6805 14.5646 38.6805 14.5507 38.6848 14.5378C38.7021 14.4912 38.7156 14.4434 38.7253 14.3948C38.7216 14.3791 38.7216 14.3628 38.7253 14.3471C38.7214 14.3235 38.7214 14.2993 38.7253 14.2757C38.7253 14.2757 38.8874 13.9659 38.8874 13.95Z" fill="black"/>
<path d="M17.2795 9.91505C17.3225 9.95318 17.3525 10.0033 17.3656 10.0587C17.3786 10.1141 17.374 10.1721 17.3524 10.2248L13.7633 22.0121C13.7181 22.1408 13.6256 22.2484 13.504 22.3139C13.405 22.3788 13.2905 22.4171 13.1718 22.4251H1.76424C1.66682 22.4205 1.57452 22.381 1.50497 22.3139C1.4636 22.2764 1.43456 22.2276 1.42157 22.1739C1.40858 22.1201 1.41224 22.0638 1.43206 22.0121L5.02933 10.2248C5.07077 10.0945 5.16033 9.98404 5.28048 9.91505C5.38107 9.85482 5.49506 9.81939 5.61267 9.81179H17.0202C17.1169 9.8127 17.2095 9.84962 17.2795 9.91505ZM11.3245 19.6372L13.4716 12.5997H7.45993L5.32099 19.6372H11.3245ZM28.1685 10.0342C28.2074 10.0785 28.2561 10.1137 28.3108 10.1371C28.3655 10.1605 28.4248 10.1714 28.4845 10.1692H29.9671C30.0236 10.1698 30.0792 10.1562 30.1289 10.1298C30.1785 10.1034 30.2204 10.065 30.2507 10.0183C30.277 9.98182 30.2956 9.94052 30.3054 9.89686C30.3151 9.8532 30.3158 9.80807 30.3074 9.76414L30.0157 7.66721C29.988 7.57016 29.9381 7.48054 29.87 7.40509C29.831 7.36075 29.7824 7.32558 29.7277 7.30221C29.6729 7.27883 29.6136 7.26785 29.5539 7.27006H28.0713C28.0148 7.26953 27.9592 7.2831 27.9096 7.30951C27.8599 7.33591 27.818 7.37428 27.7877 7.42098C27.731 7.53218 27.7067 7.60367 27.731 7.66721L28.0308 9.76414C28.0462 9.86624 28.0944 9.96085 28.1685 10.0342ZM32.8758 7.65132C32.848 7.55427 32.7981 7.46465 32.7299 7.38921C32.6926 7.34503 32.6454 7.30987 32.592 7.28645C32.5387 7.26304 32.4805 7.25199 32.422 7.25418H30.9313C30.8758 7.25263 30.8208 7.26584 30.7723 7.2924C30.7238 7.31897 30.6836 7.35791 30.6558 7.40509C30.6019 7.47556 30.5786 7.56407 30.591 7.65132L30.8907 9.74825C30.9096 9.84927 30.9573 9.94295 31.0285 10.0183C31.0681 10.0618 31.1169 10.0964 31.1714 10.1197C31.226 10.143 31.285 10.1544 31.3445 10.1533H32.8352C32.8906 10.154 32.9452 10.1405 32.9935 10.114C33.0419 10.0875 33.0823 10.049 33.1107 10.0024C33.1389 9.96689 33.1586 9.9256 33.1684 9.88162C33.1783 9.83765 33.1779 9.79208 33.1674 9.74825L32.8758 7.65132ZM26.8641 10.8285L26.7182 9.7959H19.5318C19.419 9.802 19.3098 9.83766 19.2158 9.89916C19.1562 9.93106 19.1042 9.97528 19.0637 10.0288C19.0231 10.0822 18.9949 10.1437 18.9809 10.2089L18.3813 12.1788C18.3574 12.228 18.3492 12.2832 18.3579 12.3371C18.3666 12.391 18.3917 12.441 18.4299 12.4806C18.4983 12.5436 18.5874 12.5803 18.6811 12.5839H27.4151L25.268 19.6213H16.5584C16.4461 19.6238 16.3367 19.6568 16.2425 19.7166C16.1279 19.7879 16.0442 19.8982 16.0075 20.0263L15.3998 21.9962C15.38 22.0467 15.3748 22.1017 15.3848 22.1549C15.3948 22.2082 15.4196 22.2577 15.4565 22.298C15.5227 22.3652 15.6126 22.405 15.7077 22.4092H27.1477C27.266 22.3992 27.38 22.3611 27.4798 22.298C27.5995 22.2321 27.6892 22.1243 27.731 21.9962L31.0204 11.2256H27.3178C27.259 11.2268 27.2007 11.2161 27.1464 11.1942C27.092 11.1724 27.0428 11.1398 27.0019 11.0985C26.9349 11.0265 26.8875 10.9391 26.8641 10.8444V10.8285Z" fill="white"/>
</g>
<defs>
<clipPath id="clip0_211_2080">
<rect width="38.2838" height="20.8821" fill="white" transform="translate(0.606567 6.52319)"/>
</clipPath>
</defs>
</svg>
