<svg width="46" height="40" viewBox="0 0 46 40" fill="none" xmlns="http://www.w3.org/2000/svg">
<path d="M45.6658 26.8834C45.6658 33.8031 40.0562 39.4126 33.1365 39.4126L14.3426 39.4126C12.4205 39.4126 10.8623 37.8544 10.8623 35.9322L10.8623 12.2659C10.8623 8.4216 13.9787 5.30519 17.823 5.30519L42.1854 5.30519C44.1076 5.30519 45.6658 6.8634 45.6658 8.78554L45.6658 26.8834Z" fill="#E8F5E9"/>
<path d="M20.1282 16.8909C19.9605 16.8909 19.8049 16.8448 19.6667 16.7707V16.7727C19.6667 17.0364 19.5642 17.284 19.3782 17.4695C19.1923 17.6555 18.9448 17.7579 18.6814 17.7579C18.5113 17.7579 18.3537 17.7107 18.214 17.6346C18.1999 17.8759 18.1035 18.1013 17.9315 18.2735C17.7455 18.4595 17.498 18.562 17.2345 18.562C16.7108 18.562 16.2856 18.1504 16.2549 17.6345C16.0929 17.722 15.9097 17.768 15.7208 17.7558C15.2057 17.722 14.8023 17.277 14.8023 16.7423V12.3107L14.2977 13.1849C14.1055 13.5193 13.7457 13.7269 13.3583 13.7269C13.1696 13.7269 12.9831 13.6774 12.818 13.5828C12.6123 13.4635 12.4652 13.2722 12.404 13.0432C12.3425 12.8141 12.3744 12.5745 12.4932 12.3692C12.4934 12.3692 14.1443 9.5103 14.245 9.33469C14.257 9.30828 14.2911 9.2317 14.3201 9.16643C14.3479 9.10411 14.3716 9.04016 14.3944 8.97587C14.8923 7.57031 16.1251 6.69721 17.6118 6.69721C19.5425 6.69721 21.1132 8.40042 21.1132 10.494L21.1134 15.9055C21.1134 16.1688 21.011 16.4163 20.8252 16.6025C20.6393 16.7884 20.3918 16.8909 20.1281 16.8909L20.1282 16.8909ZM17.6118 7.22075C16.3343 7.22075 15.3161 7.94234 14.8879 9.15096C14.8605 9.22771 14.832 9.30446 14.7987 9.37924C14.7021 9.59588 14.7021 9.59587 14.6749 9.62703L14.6713 9.62391C14.5365 9.87827 14.136 10.5718 12.9466 12.6312C12.8977 12.7157 12.8847 12.8137 12.9097 12.9075C12.9349 13.0013 12.9954 13.0804 13.0792 13.1288C13.3393 13.2782 13.6955 13.1817 13.8438 12.9234L14.8374 11.2031C14.8968 11.1007 15.0168 11.0503 15.1319 11.0815C15.2464 11.1121 15.3259 11.2159 15.3259 11.3343V16.7425C15.3259 16.9976 15.5185 17.2179 15.7551 17.2335C15.8916 17.2407 16.0188 17.1949 16.1144 17.0995C16.2013 17.0126 16.2492 16.8968 16.2492 16.773V13.236C16.2492 13.0913 16.3665 12.9741 16.5111 12.9741C16.6558 12.9741 16.773 13.0912 16.773 13.236L16.7729 17.5769C16.7729 17.8314 16.98 18.0386 17.2345 18.0386C17.3581 18.0386 17.4742 17.9907 17.5613 17.9038C17.6482 17.8167 17.6961 17.7006 17.6961 17.5769V13.236C17.6961 13.0913 17.8132 12.9741 17.958 12.9741C18.1027 12.9741 18.2199 13.0912 18.2199 13.236L18.2198 16.7323V16.773C18.2198 17.0273 18.4269 17.2344 18.6816 17.2344C18.8051 17.2344 18.9208 17.1864 19.0084 17.0991C19.0953 17.0124 19.1432 16.8966 19.1432 16.7728V13.2358C19.1432 13.0911 19.2603 12.9739 19.4051 12.9739C19.5497 12.9739 19.667 13.091 19.667 13.2358L19.6667 15.9056C19.6667 16.1603 19.8738 16.3674 20.1281 16.3674C20.2519 16.3674 20.3677 16.3194 20.4546 16.2326C20.5419 16.1454 20.5896 16.0292 20.5896 15.9056L20.5898 10.4941C20.5898 8.68938 19.2539 7.22081 17.6118 7.22081L17.6118 7.22075Z" fill="#103E13"/>
<path d="M9.83847 20.6521L13.6388 18.3722C14.097 18.0971 14.6866 18.214 14.9804 18.6386C15.0877 18.7932 15.1425 18.9734 15.151 19.157C15.2927 19.083 15.4468 19.0428 15.6038 19.0428C15.6841 19.0428 15.7648 19.0528 15.8445 19.0727C16.0998 19.1365 16.315 19.296 16.4503 19.5217C16.5858 19.7476 16.6253 20.0125 16.5615 20.2675C16.5026 20.5035 16.3591 20.7021 16.1595 20.8384C16.2991 20.9207 16.4195 21.033 16.5051 21.176C16.6405 21.402 16.6801 21.6667 16.6164 21.9221C16.5526 22.1771 16.3931 22.3922 16.1671 22.5279L16.1658 22.5287C16.3029 22.6108 16.4211 22.722 16.5057 22.8629C16.6414 23.0889 16.6809 23.3537 16.6171 23.6091C16.5531 23.8642 16.3936 24.0794 16.1679 24.2149L11.5276 26.9986C10.6616 27.518 9.66041 27.6973 8.70892 27.5029C7.74892 27.3068 6.95386 26.755 6.47044 25.9491C5.7054 24.6741 5.82005 23.1676 6.76907 22.0178C6.81253 21.9654 6.85533 21.9119 6.8942 21.8565C6.93536 21.7979 6.98341 21.7291 6.99981 21.7054C7.09804 21.53 8.70092 18.642 8.70075 18.6424C8.86262 18.3503 9.166 18.185 9.47889 18.1852C9.62485 18.1852 9.77293 18.2211 9.90954 18.2968C10.0745 18.389 10.2131 18.5233 10.31 18.6852C10.5093 19.0173 10.5163 19.4328 10.3287 19.7691L9.83847 20.6521ZM9.86126 18.9544C9.81042 18.8696 9.74056 18.802 9.65512 18.7542C9.4785 18.6564 9.25613 18.7201 9.15889 18.896C8.01194 20.9623 7.62096 21.6665 7.47008 21.9171L7.47352 21.9179C7.4609 21.9599 7.4609 21.9599 7.32282 22.1572C7.27591 22.2239 7.22491 22.288 7.17293 22.3512C6.35688 23.3399 6.26213 24.5841 6.91923 25.6797C7.32626 26.3583 7.99897 26.8236 8.8135 26.9899C9.6369 27.1573 10.5048 27.0015 11.258 26.5496L15.8987 23.7656C16.0046 23.7022 16.0794 23.6013 16.1093 23.4818C16.1391 23.3624 16.1206 23.2382 16.0569 23.1323C15.9261 22.9142 15.6419 22.8425 15.4238 22.9739L13.1344 24.3473C13.0105 24.4218 12.8494 24.3818 12.7751 24.2576C12.7007 24.1336 12.7409 23.9728 12.8648 23.8983L15.1543 22.5249L15.8979 22.0788C16.0038 22.0152 16.0788 21.9143 16.1086 21.7951C16.1385 21.6756 16.1199 21.5513 16.0563 21.4455C15.9253 21.2272 15.6411 21.1562 15.4231 21.2871L12.3901 23.1066C12.2658 23.1812 12.1052 23.1408 12.0308 23.0169C11.9563 22.8929 11.9967 22.732 12.1205 22.6576L15.8429 20.4245C15.9489 20.3609 16.0237 20.2602 16.0535 20.1406C16.0834 20.0212 16.0648 19.8971 16.0014 19.7911C15.9379 19.6854 15.837 19.6106 15.7175 19.5807C15.5973 19.5509 15.4736 19.5694 15.368 19.6327L14.6789 20.0462C14.6788 20.0462 14.6788 20.0463 14.6786 20.0463H14.6784L11.6456 21.8658C11.5213 21.9406 11.3605 21.9003 11.2863 21.7761C11.2118 21.6521 11.2521 21.4913 11.376 21.4168L14.409 19.5973C14.5149 19.5337 14.5899 19.4328 14.6197 19.3136C14.6525 19.1827 14.6276 19.0489 14.5499 18.9368C14.4151 18.7418 14.1268 18.6899 13.9082 18.8213L9.27083 21.6033C9.16932 21.664 9.03927 21.6492 8.95416 21.567C8.86889 21.4847 8.8497 21.3553 8.90709 21.2518L9.87138 19.5145C9.96814 19.3408 9.96436 19.1263 9.86121 18.9545L9.86126 18.9544Z" fill="#103E13"/>
<path d="M27.9983 25.949C27.515 26.755 26.7201 27.3067 25.76 27.5028C24.8083 27.6968 23.8075 27.5179 22.9412 26.9985L18.3005 24.2146C18.0747 24.0792 17.915 23.864 17.851 23.6085C17.7876 23.3535 17.8273 23.0886 17.9626 22.863C18.047 22.7219 18.1654 22.6107 18.3027 22.5286L18.3014 22.5278C18.0755 22.3923 17.9158 22.1772 17.8522 21.922C17.7882 21.6668 17.8279 21.4018 17.9634 21.1758C18.0506 21.0307 18.1702 20.9172 18.3066 20.8367C18.1085 20.7004 17.9658 20.5025 17.9071 20.2676C17.8432 20.0123 17.8829 19.7474 18.0183 19.5218C18.1536 19.2959 18.3689 19.1364 18.6241 19.0726C18.7038 19.0526 18.7847 19.0427 18.8647 19.0427C19.0218 19.0429 19.176 19.0828 19.3176 19.1569C19.3263 18.9734 19.3809 18.7932 19.4882 18.6385C19.7822 18.2143 20.3713 18.0968 20.8302 18.3722L24.6304 20.6517L24.1405 19.7694C23.9526 19.4325 23.9595 19.017 24.1587 18.6847C24.2558 18.523 24.3945 18.3887 24.5603 18.2957C24.6966 18.2203 24.8442 18.1846 24.9898 18.1846C25.3026 18.1847 25.6063 18.3497 25.768 18.6418C26.3314 19.6571 27.3948 21.5718 27.4695 21.7055C27.4854 21.7286 27.5335 21.7975 27.5747 21.856C27.6138 21.9116 27.6562 21.9648 27.6999 22.0176C28.6488 23.1678 28.7633 24.6741 27.9983 25.949L27.9983 25.949ZM27.2959 22.3513C27.2438 22.2882 27.1926 22.2237 27.146 22.1573C27.0043 21.9563 27.0007 21.951 26.9901 21.8984C26.8244 21.6244 26.4204 20.8969 25.3097 18.8958C25.2122 18.7202 24.9909 18.6561 24.8146 18.7535C24.7278 18.802 24.6581 18.8697 24.6073 18.9545C24.5043 19.1262 24.5004 19.3407 24.5976 19.5149L25.5616 21.2518C25.6191 21.3554 25.5999 21.4846 25.5148 21.5669C25.4299 21.6494 25.3 21.6639 25.198 21.6032L20.5606 18.8212C20.342 18.6902 20.0539 18.7415 19.9188 18.9367C19.841 19.0488 19.8163 19.1826 19.8487 19.3133C19.8786 19.4327 19.9535 19.5334 20.0596 19.5971C20.06 19.5972 20.0601 19.5975 20.0605 19.5977L23.0925 21.4167C23.2165 21.4912 23.2567 21.6519 23.1822 21.776C23.1078 21.8998 22.9472 21.9403 22.8229 21.8657L19.1005 19.6327C18.9948 19.5694 18.8705 19.5507 18.7512 19.5807C18.6314 19.6105 18.5308 19.6853 18.4673 19.7914C18.4037 19.8972 18.3853 20.0213 18.4148 20.1407C18.4447 20.2601 18.5196 20.3609 18.6255 20.4246L19.3499 20.859L22.3478 22.6577C22.4718 22.7321 22.512 22.8928 22.4375 23.017C22.3631 23.1408 22.2025 23.1811 22.0782 23.1067L19.0455 21.2872C18.8274 21.156 18.5434 21.2272 18.4122 21.4456C18.3486 21.5515 18.3302 21.6757 18.3597 21.7951C18.3896 21.9145 18.4645 22.0151 18.5706 22.0789L19.3141 22.525L21.6033 23.8984C21.7273 23.9729 21.7675 24.1336 21.693 24.2577C21.6186 24.3816 21.458 24.4222 21.3337 24.3475L19.0445 22.974C18.9389 22.9107 18.8151 22.892 18.6951 22.922C18.5757 22.9519 18.4747 23.0266 18.4112 23.1324C18.3477 23.2384 18.3292 23.3627 18.3587 23.4819C18.3886 23.6013 18.4635 23.702 18.5696 23.7658L23.2103 26.5497C23.9634 27.0015 24.8319 27.1579 25.6548 26.99C26.4692 26.8237 27.1419 26.3584 27.5489 25.6799C28.2067 24.584 28.1121 23.3397 27.2962 22.3513L27.2959 22.3513Z" fill="#103E13"/>
</svg>
