<svg width="23" height="23" viewBox="0 0 23 23" fill="none" xmlns="http://www.w3.org/2000/svg">
<path opacity="0.1" fill-rule="evenodd" clip-rule="evenodd" d="M0.262817 11.7743C0.262817 5.62345 5.24907 0.637192 11.3999 0.637192C17.5508 0.637192 22.537 5.62345 22.537 11.7743C22.537 17.9252 17.5508 22.9114 11.3999 22.9114C5.24907 22.9114 0.262817 17.9252 0.262817 11.7743Z" fill="white"/>
<path fill-rule="evenodd" clip-rule="evenodd" d="M17.3397 11.7661C17.3397 12.1678 17.2988 12.5689 17.2184 12.9599C17.1401 13.3417 17.0241 13.7164 16.8721 14.0747C16.7236 14.4266 16.5395 14.7657 16.3242 15.082C16.1122 15.3963 15.868 15.6911 15.5997 15.9599C15.3308 16.2275 15.035 16.471 14.7209 16.6839C14.4036 16.8976 14.064 17.0816 13.7118 17.2307C13.3531 17.3819 12.9774 17.4978 12.596 17.576C12.2045 17.6565 11.8019 17.6976 11.3996 17.6976C10.997 17.6976 10.5945 17.6565 10.2035 17.576C9.82149 17.4978 9.44588 17.3819 9.08738 17.2307C8.73528 17.0816 8.39533 16.8976 8.07803 16.6839C7.76391 16.471 7.46807 16.2275 7.19978 15.9599C6.93121 15.6911 6.68698 15.3963 6.47467 15.082C6.26061 14.7657 6.07613 14.4266 5.92706 14.0747C5.77506 13.7164 5.65877 13.3416 5.58016 12.9599C5.5007 12.5689 5.46008 12.1678 5.46008 11.7661C5.46008 11.3641 5.50068 10.9621 5.58019 10.5719C5.65879 10.1902 5.77508 9.81484 5.92708 9.45716C6.07616 9.10498 6.26064 8.76555 6.47469 8.44926C6.687 8.13474 6.93123 7.84046 7.1998 7.57139C7.46809 7.30377 7.76394 7.06079 8.07805 6.84821C8.39536 6.63358 8.7353 6.4497 9.08741 6.30023C9.44591 6.14873 9.82149 6.03261 10.2035 5.955C10.5945 5.87507 10.9971 5.83451 11.3996 5.83451C11.8019 5.83451 12.2045 5.87507 12.596 5.955C12.9774 6.03263 13.3531 6.14875 13.7119 6.30023C14.064 6.44967 14.4036 6.63358 14.7209 6.84821C15.035 7.06079 15.3309 7.30377 15.5997 7.57139C15.868 7.84046 16.1123 8.13474 16.3243 8.44926C16.5395 8.76555 16.7236 9.105 16.8721 9.45716C17.0241 9.81484 17.1401 10.1902 17.2184 10.5719C17.2988 10.9621 17.3397 11.3641 17.3397 11.7661ZM9.23527 7.18445C7.82072 7.85148 6.76496 9.15305 6.43575 10.7217C6.56948 10.7228 8.68332 10.7495 11.1188 10.1033C10.2409 8.54569 9.30286 7.27455 9.23527 7.18445ZM11.5391 10.8833C8.92725 11.6641 6.42096 11.6079 6.33106 11.6045C6.3296 11.6589 6.32699 11.7116 6.32699 11.7661C6.32699 13.0673 6.81861 14.2536 7.62668 15.1506C7.62493 15.148 9.01311 12.6888 11.7505 11.8049C11.8166 11.7829 11.884 11.7632 11.9507 11.7441C11.8233 11.4562 11.6844 11.1677 11.5391 10.8833ZM14.7496 7.96443C13.8565 7.17807 12.6839 6.70109 11.3996 6.70109C10.9874 6.70109 10.5875 6.75091 10.2043 6.84301C10.2803 6.94497 11.2331 8.20714 12.1006 9.79775C14.0146 9.08123 14.7371 7.98295 14.7496 7.96443ZM12.2964 12.5834C12.2851 12.5871 12.2738 12.5904 12.2628 12.5944C9.26987 13.6363 8.2925 15.7359 8.28192 15.7588C9.14308 16.4276 10.2232 16.831 11.3996 16.831C12.1021 16.831 12.7712 16.6882 13.38 16.4296C13.3049 15.9871 13.0102 14.4358 12.2964 12.5834ZM14.2342 15.9668C15.3732 15.1993 16.1821 13.9806 16.4078 12.5689C16.3033 12.5353 14.8842 12.0866 13.2469 12.3488C13.9122 14.1746 14.1826 15.6615 14.2342 15.9668ZM12.4911 10.5525C12.6088 10.7941 12.7228 11.0399 12.8281 11.287C12.8655 11.3756 12.9021 11.4625 12.9377 11.5494C14.6803 11.3304 16.3971 11.6989 16.4705 11.7139C16.4589 10.5131 16.0287 9.41109 15.317 8.54832C15.3074 8.5619 14.4938 9.73576 12.4911 10.5525Z" fill="white"/>
</svg>
