<svg width="46" height="40" viewBox="0 0 46 40" fill="none" xmlns="http://www.w3.org/2000/svg">
<path d="M45.7922 26.8834C45.7922 33.8031 40.1827 39.4126 33.263 39.4126L14.4691 39.4126C12.547 39.4126 10.9888 37.8544 10.9888 35.9322L10.9888 12.2659C10.9888 8.4216 14.1052 5.30519 17.9495 5.30519L42.3119 5.30519C44.234 5.30519 45.7922 6.8634 45.7922 8.78554L45.7922 26.8834Z" fill="#E8F5E9"/>
<path d="M19.2834 13.6654C19.0662 13.6654 18.8896 13.4891 18.8896 13.2716V12.6025C18.8896 12.3853 19.0659 12.2087 19.2834 12.2087C19.5006 12.2087 19.6771 12.385 19.6771 12.6025V13.2716C19.6771 13.4891 19.5006 13.6654 19.2834 13.6654Z" fill="#103E13"/>
<path d="M17.6279 13.6654C17.4107 13.6654 17.2341 13.4891 17.2341 13.2716V12.6025C17.2341 12.3853 17.4104 12.2087 17.6279 12.2087C17.8451 12.2087 18.0216 12.385 18.0216 12.6025V13.2716C18.0214 13.4891 17.8453 13.6654 17.6279 13.6654Z" fill="#103E13"/>
<path d="M15.9726 13.6654C15.7554 13.6654 15.5789 13.4891 15.5789 13.2716V12.6025C15.5789 12.3853 15.7551 12.2087 15.9726 12.2087C16.1898 12.2087 16.3664 12.385 16.3664 12.6025V13.2716C16.3664 13.4891 16.1901 13.6654 15.9726 13.6654Z" fill="#103E13"/>
<path d="M19.2834 16.4019C19.0662 16.4019 18.8896 16.2256 18.8896 16.0082V15.3393C18.8896 15.1221 19.0659 14.9456 19.2834 14.9456C19.5006 14.9456 19.6771 15.1218 19.6771 15.3393V16.0082C19.6771 16.2256 19.5006 16.4019 19.2834 16.4019Z" fill="#103E13"/>
<path d="M17.6279 16.4019C17.4107 16.4019 17.2341 16.2256 17.2341 16.0082V15.3393C17.2341 15.1221 17.4104 14.9456 17.6279 14.9456C17.8451 14.9456 18.0216 15.1218 18.0216 15.3393V16.0082C18.0214 16.2256 17.8453 16.4019 17.6279 16.4019Z" fill="#103E13"/>
<path d="M15.9726 16.4019C15.7554 16.4019 15.5789 16.2256 15.5789 16.0082V15.3393C15.5789 15.1221 15.7551 14.9456 15.9726 14.9456C16.1898 14.9456 16.3664 15.1218 16.3664 15.3393V16.0082C16.3664 16.2256 16.1901 16.4019 15.9726 16.4019Z" fill="#103E13"/>
<path d="M19.2834 19.1383C19.0662 19.1383 18.8896 18.962 18.8896 18.7445V18.0754C18.8896 17.8582 19.0659 17.6816 19.2834 17.6816C19.5006 17.6816 19.6771 17.8579 19.6771 18.0754V18.7445C19.6771 18.962 19.5006 19.1383 19.2834 19.1383Z" fill="#103E13"/>
<path d="M17.6279 19.1383C17.4107 19.1383 17.2341 18.962 17.2341 18.7445V18.0754C17.2341 17.8582 17.4104 17.6816 17.6279 17.6816C17.8451 17.6816 18.0216 17.8579 18.0216 18.0754V18.7445C18.0214 18.962 17.8453 19.1383 17.6279 19.1383Z" fill="#103E13"/>
<path d="M15.9726 19.1383C15.7554 19.1383 15.5789 18.962 15.5789 18.7445V18.0754C15.5789 17.8582 15.7551 17.6816 15.9726 17.6816C16.1898 17.6816 16.3664 17.8579 16.3664 18.0754V18.7445C16.3664 18.962 16.1901 19.1383 15.9726 19.1383Z" fill="#103E13"/>
<path d="M19.2834 21.8741C19.0662 21.8741 18.8896 21.6978 18.8896 21.4804V20.8112C18.8896 20.594 19.0659 20.4175 19.2834 20.4175C19.5006 20.4175 19.6771 20.5938 19.6771 20.8112V21.4804C19.6771 21.6978 19.5006 21.8741 19.2834 21.8741Z" fill="#103E13"/>
<path d="M17.6279 21.8741C17.4107 21.8741 17.2341 21.6978 17.2341 21.4804V20.8112C17.2341 20.594 17.4104 20.4175 17.6279 20.4175C17.8451 20.4175 18.0216 20.5938 18.0216 20.8112V21.4804C18.0214 21.6978 17.8453 21.8741 17.6279 21.8741Z" fill="#103E13"/>
<path d="M15.9726 21.8741C15.7554 21.8741 15.5789 21.6978 15.5789 21.4804V20.8112C15.5789 20.594 15.7551 20.4175 15.9726 20.4175C16.1898 20.4175 16.3664 20.5938 16.3664 20.8112V21.4804C16.3664 21.6978 16.1901 21.8741 15.9726 21.8741Z" fill="#103E13"/>
<path d="M19.2834 24.6107C19.0662 24.6107 18.8896 24.4344 18.8896 24.2169V23.548C18.8896 23.3309 19.0659 23.1543 19.2834 23.1543C19.5006 23.1543 19.6771 23.3306 19.6771 23.548V24.2169C19.6771 24.4341 19.5006 24.6107 19.2834 24.6107Z" fill="#103E13"/>
<path d="M17.6279 24.6107C17.4107 24.6107 17.2341 24.4344 17.2341 24.2169V23.548C17.2341 23.3309 17.4104 23.1543 17.6279 23.1543C17.8451 23.1543 18.0216 23.3306 18.0216 23.548V24.2169C18.0214 24.4341 17.8453 24.6107 17.6279 24.6107Z" fill="#103E13"/>
<path d="M15.9726 24.6107C15.7554 24.6107 15.5789 24.4344 15.5789 24.2169L15.5791 23.548C15.5791 23.3309 15.7554 23.1543 15.9729 23.1543C16.1901 23.1543 16.3666 23.3306 16.3666 23.548V24.2169C16.3664 24.4341 16.1901 24.6107 15.9726 24.6107Z" fill="#103E13"/>
<path d="M4.72445 27.3337C4.72445 27.5509 4.90073 27.7275 5.1182 27.7275H29.0962C29.3134 27.7275 29.49 27.5512 29.49 27.3337C29.49 27.1165 29.3137 26.94 29.0962 26.94H28.3684V15.6349C28.3684 15.4177 28.1921 15.2412 27.9746 15.2412L21.5459 15.2414V7.09108C21.5459 6.95324 21.474 6.82584 21.3564 6.75444C21.2392 6.68278 21.0926 6.67838 20.9707 6.74181L13.6617 10.5472C13.5313 10.615 13.45 10.7496 13.45 10.8965V18.0157H6.3765C6.15932 18.0157 5.98276 18.1919 5.98276 18.4094V26.9401H5.11732C4.90013 26.9398 4.72412 27.1161 4.72412 27.3335L4.72445 27.3337ZM21.546 21.2049H27.5813V26.9403L21.546 26.94V21.2049ZM21.546 18.4687H27.5813V20.4177L21.546 20.4174V18.4687ZM21.546 16.0285H27.5813V17.6818H21.546V16.0285ZM14.2371 11.1356L20.7583 7.7401V26.9397H14.2371V11.1356ZM8.71669 23.7952C8.71669 22.978 9.36414 22.313 10.1601 22.313C10.9561 22.313 11.6039 22.9777 11.6039 23.7952V26.9402H8.71669V23.7952ZM6.77023 18.803H13.4499V26.94H12.3913V23.795C12.3913 22.5438 11.3908 21.5256 10.1601 21.5256C8.93003 21.5256 7.92949 22.5435 7.92949 23.795V26.94H6.77023V18.803Z" fill="#103E13"/>
</svg>
