<svg width="30" height="24" viewBox="0 0 30 24" fill="none" xmlns="http://www.w3.org/2000/svg">
<path d="M2.13263 6.63425V6.98229H2.48066H27.5392H27.8872V6.63425V5.0681C27.8872 4.28351 27.5755 3.53106 27.0207 2.97627C26.4659 2.42148 25.7135 2.1098 24.9289 2.1098H5.09093C4.30634 2.1098 3.55388 2.42148 2.99909 2.97627C2.44431 3.53106 2.13263 4.28351 2.13263 5.0681V6.63425ZM27.8872 8.72246V8.37443H27.5392H2.48066H2.13263V8.72246V18.6415C2.13263 19.426 2.44431 20.1785 2.99909 20.7333C3.55388 21.2881 4.30634 21.5997 5.09093 21.5997H24.9289C25.7135 21.5997 26.4659 21.2881 27.0207 20.7333C27.5755 20.1785 27.8872 19.426 27.8872 18.6415V8.72246ZM0.740491 5.0681C0.740491 3.91429 1.19884 2.80774 2.0147 1.99188C2.83057 1.17601 3.93712 0.717664 5.09093 0.717664H24.9289C26.0827 0.717664 27.1893 1.17601 28.0051 1.99188C28.821 2.80774 29.2793 3.91429 29.2793 5.0681V18.6415C29.2793 19.7953 28.821 20.9018 28.0051 21.7177C27.1893 22.5335 26.0827 22.9919 24.9289 22.9919H5.09093C3.93712 22.9919 2.83057 22.5335 2.0147 21.7177C1.19884 20.9018 0.740491 19.7953 0.740491 18.6415V5.0681ZM20.2304 15.3351H23.3627C23.5474 15.3351 23.7244 15.4085 23.8549 15.539C23.9855 15.6695 24.0588 15.8466 24.0588 16.0312C24.0588 16.2158 23.9855 16.3929 23.8549 16.5234C23.7244 16.6539 23.5474 16.7273 23.3627 16.7273H20.2304C20.0458 16.7273 19.8688 16.6539 19.7382 16.5234C19.6077 16.3929 19.5344 16.2158 19.5344 16.0312C19.5344 15.8466 19.6077 15.6695 19.7382 15.539C19.8688 15.4085 20.0458 15.3351 20.2304 15.3351Z" fill="#4CAF4F" stroke="#4CAF4F" stroke-width="0.696069"/>
</svg>
