<svg width="14" height="13" viewBox="0 0 14 13" fill="none" xmlns="http://www.w3.org/2000/svg">
<g clip-path="url(#clip0_351_231)">
<path fill-rule="evenodd" clip-rule="evenodd" d="M12.4608 0.766857C12.6026 0.908667 12.6506 1.11917 12.5844 1.30846L8.93002 11.7495C8.8593 11.9515 8.67243 12.0899 8.45855 12.0987C8.24468 12.1074 8.04715 11.9847 7.96021 11.7891L5.95355 7.27409L1.43857 5.26743C1.24297 5.18049 1.12025 4.98296 1.12898 4.76909C1.1377 4.55521 1.2761 4.36834 1.47813 4.29763L11.9192 0.643261C12.1085 0.57701 12.319 0.625048 12.4608 0.766857ZM6.97174 6.99419L8.37953 10.1617L10.8432 3.12277L6.97174 6.99419ZM10.1049 2.38448L3.06592 4.84811L6.23345 6.2559L10.1049 2.38448Z" fill="white"/>
</g>
<defs>
<clipPath id="clip0_351_231">
<rect width="12.5293" height="12.5293" fill="white" transform="translate(0.606445 0.0919037)"/>
</clipPath>
</defs>
</svg>
